<mxfile host="app.diagrams.net" modified="2024-05-22T08:47:40.386Z" agent="Mozilla/5.0 (Windows NT 10.0; Win64; x64) AppleWebKit/537.36 (KHTML, like Gecko) Chrome/124.0.0.0 Safari/537.36" etag="7-lYmy80JzgtWuLRBzgs" version="24.4.4" type="github">
  <diagram name="Page-1" id="H2NKDcwWlqCqL9h61qGk">
    <mxGraphModel dx="1474" dy="757" grid="1" gridSize="10" guides="1" tooltips="1" connect="1" arrows="1" fold="1" page="1" pageScale="1" pageWidth="2500" pageHeight="1100" math="0" shadow="0">
      <root>
        <mxCell id="0" />
        <mxCell id="1" parent="0" />
        <mxCell id="c0v-5aZSuVbsnB0xmh3q-1" value="" style="shape=image;verticalLabelPosition=bottom;labelBackgroundColor=default;verticalAlign=top;aspect=fixed;imageAspect=0;image=data:image/png,iVBORw0KGgoAAAANSUhEUgAAAkAAAADpCAYAAADMFog5AAAAAXNSR0IArs4c6QAAAARnQU1BAACxjwv8YQUAAAAJcEhZcwAADsMAAA7DAcdvqGQAABx8SURBVHhe7d27bupMG4bh9/sbTgQpQkg07jgCpBRORxeJjo4mcpkipZWGLp2ldHShiMQRpKNBQlEkTsTV+me8AUMA7wNm7kvyWgkOeAeeh5mx5z/f9/8JAACAQf4X/Q8AAGAMAhAAADAOAQgAABiHAAQAAIxDAAIAAMYhAAEAAOMQgAAAgHEIQAAaYCHjVl+mm+hXAA2nP9Nj9W9Z+nVa0lJTP+cJogEBaCPTvt64KnZUOZtpX1r9qVqjPK5n/S+judsfHO/og1V8/Ytvf7blX3r//sXy9TJsWbnvMmlHD/2Z63n/cv65BI5/MeFyx2cXOpAndyV2yXVbjG3xRnPxfV++cp4gqAG6csXe9KhCe/IVfKj8+Sh65Lc6j0+W5dftGt5/m+mjOOLK+9+nH+Nx/jFb3ce/PXkX1/LEPp+UztjIz0pk9DCIfs+nAQGoLZMvVQj4byovNlHT178str/e7b/0/q15+ZupPDoi7vtELekSmv7+Nf3zVxbHv15q/d5dsbyXizRvlwhAR6q4FuNEWozn79rnWkfa8BfjeF44JV8vSJ/beceqyeLqvf0pbAcssPwjSTc5v+sso0ezOb/+59cvfm6wzKUj3SN/kyZ4Db1D9XGJnr9rI007fqFzx0crd/wOn5/8m2zH7yS9LWpl4tcfL+L3Svwa2bb/lCzHJ//xP1ifFFn2r/oj6Sde//zx3b1G+e3T4n1+7G+yHd/N50yW1lDuf6WftOOX7fXLvX8Pty+cOP/snHp/lcfxT3MNx/9wHx09v7XvZWgtZfaZ64UrUXsNkGe/SGetE6gv89FSnMfdQdY72V65stbV/NH0loipaU0Ai3FXnF7Y9uf7a3EtEctd77UDnlu+fnPZEj9fze+pA514Ex7OX+sF5JClCePU+sXPDZZpJffRV75+EJ4trZdO+Py1K2oBmd/Aacen7PHTz/942D13PvLEPjgJnDt+qdS2v3TWwT707K58P+v3SDUftCzHJ9vxt0Xm4XPD9cxeSKS+vi4Quo70otcPpq9dTcq5/V9++/SJL/n51K/1u70/7fhuvpdiDe+365wX55/T66/Vef7J8vmuG8f/9PprdR5/LTzv7tb/+PmtLfdDS5bfRd4ZG/leWtIpeIKoPQCN5rsdNng4ciCWMylWHi3kw0u2/R3fiaeXr59vifu0e8cPnlyx4vVR35xfDubXIXX/lDaSeVzote+kJ0vJ9T5LOz6Fj1/4IUuecI5tf7n9M5Ln+MnqQ1zzoSxkpMJJvA/ak2e1xiv5Kbg/Dy2CD8h8bx8nZdn/hW0+ZbZU773EAsLt8+QjcQY8f3zD9v0yOP+cV+f5p9b3V0Yc//PqPP5arvPb6mcb/tLFNVcf8pC3UiDhon2A9AckqJToRlVkub4dDEQfL297Nt3I50x9W8waBTc/6lCoxBsvW0/q2/J+JWNP7gru2Ksxeki0/Q7kTSXxUwXiobTjU+74KYfNM7Y6oxgvZ0A9KUPnwDr3/+b74LOktaWT70tsrTj/1OzKP98c/0uo6vwWlmX+uiMvuZvldi7eCVq/CcOqtbW44kj3aCPhGbqJJ3gDhdWR+S6DUwk7qv7bTck0Wd238aZKOz7Fj59K8OoDrw5A9Hw1namqNUJwUixenXvM6uQb+BL7X1dXRz9eCc4/dWnG55vj/4fSzm+9u7ClIo+o/1DRUFU6AG0TsE77pRJ+W+560Y+ZRFWIyTdQ1qoNLdpxzuuJN3zUXLTtL7IY5+6EVoW23iklmpnSZD9+accn7/E7pE6YF/iGWPb9W+XxWbyqb4Cj58LVufuiKvnMfb6O7//C2zd4CJq7kpe3BvfryNUUGW3D7PPkN3POP/Wq7v196vOtHg8CRPa+b0kc/3r9zfktZ+1ZhUoEoPjytSgBd7/lOWfC1528wvQcTkGHtO2bKNF7PHhjq5Np8HdxdZe+iVKi+jKeMldj6ssDVepfxQn+8PkDeQvrR8PHdUfiXNuXtv4ZDd7Czmnb7Sxe3bcv/fidPz5VHD9dQEf7t/UiHfcvvyGmbX/G43fy+GR7vmfHz4s6PGbef+mvr7/d7lXx6ynx/s60/wtvn66insso3r9qCt4fiU7YWbTvh2ItHfldTnD+OS/b+y9V4fNP1s933Cy63zcsHcf/vEsf/9Dp81tC0F/QkuHvSz1r959Krv+in5tFJ/7uTIbrZJWh/jah7xi73xMfuD76BBVeIXHsnIAdXVAVCU+14vxTGX01VthaltyXV47jX5HwPDgbFt1n5c6jF+8DVNixTpZBG6NuSuTNB9yKwVvB/hl14vxTkbD5Q47e6+mKcfwrUf4u72HT5bYpNKfm1gApwTdDXbuXkLzsDrcq/KZ1cOj3XP/7gBqgfPQx1/csuZ5aAs4/Jen7VOkdqMdxauBO4/iXpT/T+jL2snep3pUHh/dhStPoAAQAAFBEc5vAAAAACiIAAQAA4xCAAACAcQhAAADAOASgVPENpYrdqbRK+n4Z2W+0Fbue9f9rwf6KbsJ1rdu/dzO23McWAFAUAQhnFQtd12E7zs+ZO6hecvu2N/gLbqV/hfe6AYAbRgBKpW9ZrguosvcquJSmr/+tisYSeo/vbqyO07MKat5LvlvVAwAKaXAACpt29r4w6xtrbb/Nx/P1TZLiZobf45jsNUGoKfl66U0ocfPS/tQPFlJg+UdqIpLz8w6Gd379z69f/NxgmUtHukf+Jk3wGnqH6uMSPT/cNzt5tl9Pu+OTdvzPq2L7Sll8iCc92d00Vm3Pi76V1+HIxtHxuVAtFQDcqpuvAfJsffdYXQPih4O6Pe4KEl0I7pogwil5F8+0JpTFuCtObx49dy2u9ftOlOeWrwv3YIC4aNnzniqIEwXd4fy1XkAOWZqATq1f/NxgmVZyH+W8E68erFAP5KefGwzutxudPG37045PGeW3Lxkc96e9UHaO1Qlrf/S4Qi19V+jwPQQAqN/NB6DRfFegDR6OBIHCQ/3rJgz1+g9xidyW+6Ely/2v72eWHzWBPO1K9MGTK1a8PqpQfDmYX4fU/VPaSObxIJbtO+ltazhStj9W+PjUTY92vgtmySlPSAtqooJBFU89L1rONQ0ECgA3wOg+QLoWIKiUiIf6z9XMMBCdF3aDsIWD+lmdjMVUMHDecrdsPXWdgwH2kk0kDTV6SPQ9CgvzoKDPsP3ljk/dKqgBWjpiz4ay3tY6beQ7XysnAKAg4ztBb5uJil6Fo5t4goIvbA7LN6S/JW7U/LSbkk0wK/m5ytqPqqRtfwXHpzYla4DaHbX1Kh8+J2p2glA4km2lIgCgNo0PQNsaGN2P4nBo3lzCYfWzi5pwkgV4nraP9r0MraU4rycK9Ki5aBa3/yzGuTtBV6Gtd0odzVBp2//L8eNT9vjXtn1p2hMJL/qKa7U2Mn10ZLlXY6bFNU3m3ccJAOrU4ADUlsm7K1ZcA9P9lucznX2PObzCKOhwuw0x4VVGwbygYPXEDv4uvkpoIE/J5pl4ytxMoy9PX4u7imuQDp8/kLew/Sd8XHckzrV9aeuf0eAt7By93c6qrpJK2/6045N2/DNuf23bl27wFtVqBcuNOtT/CtFt6QQdoz3ZtrYCAEr7z/f9f9HPyEPXOASdV5NNNvrbui2rgyvBgFL05f0qxI3m1V0FBwCmM74PUGGb74MOy0rQh0Ok1/iey7ge0f2BLFdqviAQAIxCDVAJwX1sDrqd8C0dlYlqfoL7FHEZPABUigAEAACMQxMYAAAwDgEIAAAYhwAEAACMQwACAADGIQABAADjEIAAAIBxCEAAAMA4BCAAAGAcAhAAADAOAQgAABiHAAQAAIxDAAIAAMYhAAEAAOMQgAAAgHEIQAAAwDgEIAAAYBwCEAAAMA4BCAAAGIcABAAAjEMAAgAAxiEAAQAA4xCArsZCxq2+TDfRr42g13ms/i1Lv05LWmrqN2sHAAAa6oYD0Eam/ZaMU0vn8O9aRwryzbQfFMrhVEVBf4peB1tW7rtM2tFDmde/XotxvP1q6k/VWiUN5MldiV1y3yzGtnijufi+L1+7HQAAQG2oATqjPfkKCmV/Pooeqcdm+iiOuPJ+ZYW/Dj/2ypW13gf+Wq2hI92DRNaevItreWIXTmob+VmJjB4G0e8AANSPACRtmXzpAv5NLlIEb6by6Ii47xO1JhVbjEvUXC3kw7MS66X207MKgt7LQTOdevzdFevX4wAAXK+GBqCweehYf5Gg2WqvqSZu4tLTfh+bKpq4zjcRpdt8zmRpDeX+ZPpJrn/OJrHBm8xHnthF+hYtPsSTntxt10utx4un/l/K9+Frte9laC1l9pl3IQAAXEZDA1Bb7nqqKP5VEkd6d9vaFM/uyvezruHxVRhYivO4Cyllm7iCJiIJ+64Er99zpJszBG2+l2IN77freyi5/mvXUr/nC2qDN/08EadboD+R1QnXazOVfkuvx1rUKhzRlvuhdfp4nLWR76UlnZMBEACA6jW2Cazd2ZXEQS1MVLoHgSJRmo7mvrxFbVuDhyr78kRNRE+7hrPBkyvWcibZK0LC/i/nJNe/PXmWkazkJ2fOCIKeSkErO/9VVkEtWXcmw/VuPU5a/eQIf/GVXx/y4H8lOn8DAFC/5gYgXQUUFLgqiKxGMlp9qJ/CQNHbtdvUZ/OjosgyqFnZNoF1HfVI3Y40QeWwdF6z1yAtHbFnQ1lvA4qurQnmVGAgb7rmbN2Rl8Zd/g8AaLrmdoJud8RafstGBREZPslDz5OPoGT/y+YUS9x12Dy1m2qszQhCV4Ht052hVTjrzfX6Zezsrfev+m/0nOicHSx/JCcv2Eo0PWYW9R8qE+oAAMirwQHoTnrqv5/Pb+nct4PmLe/jVb6XyY67NYoKbuc1b8eapKjvzOwzU9PR4tWR5eg5V8AKmgftVRDUUpuwktoTCS/6ivs0bWT6qJf/cCRAbeRztt/0CADANWtuAFLhoWN54sw64RVUgwcZeZ54ccfdVImrq2x9dZO+Wkr/HjfHpM3Xl8+vxV3Z4d/EU85O0O37oVhLR07lKM/evXbQ4TpPilmMxfZGMi9YKzV4i+79Eyy/K07vxPI3nzJbWjI8fSkbAABX5T/f9/9FP+NCtjcc/KrhXkC100GxK7PhuuBdnMPn6yvdctVQAQBQQoNrgG7Htqal8N2UL6f8XazDWxp4YQcuAAD+BDVAV0NfFv4inXWTLgnX66wvYy97F239OrbohkbLLVqTBABAdgQgAABgHJrAAACAcQhAAADAOAQgAABgHAJQY+iOwk0bMkKvc7FR9gEAqBMBqLT4holnCvpgNPXdDQ3zDkgaLsOWlfueuEIsXG65K+d1QNmtV7HXOrf9A3lyV2I3NAQFA8Fu9w9B7hD7B0CTEYBqpwLCoyPirrfjheW9zLv8vXaOW4xt8UbzcL3mI/HsnIWYHmOs9SgyPD3KfnvyLq7lid3AexwFo+hH++aUIATkvPv3rWD/AGgyAlBpekiMc4OM6hHUSwwTsZlKkJ/eq75LdDhyfvHxuxai8lM4zMZd9NBRav+8u2J5L4z4DgC4GgSgEv6iCWDzOZOlNQzHOzsqboIKp+wVLdFArM6rWm8dZjyRowOdnjKQt8wjy4cDx84+8yWgYP/qDQpqmsLtO2w+DAZ7jeYdq2nYm6+m3f450oSol5OxtiI+9l1nKWonRuOl6env+mmZsn+221nA/vYd+4xGzcDUUgHGIQCVcLYJYFso6TscL8XpnjsJn7b5Xoo1vD9Z++PZ4Thaej3WrpWrGWvbPKXWUebqNWobjCsKW98FihjPltZLR9Z6P69dEedxW4Dqwi0YIFbPU9O8pwraREGmC85gjLVovp6q2sT42Ot9LlZyGVnv5L3f/yo55Srrb3b/lKe37+Nht23zkXqvE3QARAhAdRm8RSfeuYzEEncdn4jzDBsRNlOdM1LBJS602pNntayV/GQ6w+sCuCuOWjdVRMkqeFJYKBf8sp1u9VOg8BnJPB4ktn0nPRUmwxy1kA9P7den3d4cPLliLWeyV9F0+PvV0DVou8I5OeULIbe6f8rTISy5LwcPx/oqRcehkQMRAyiDAHRz4gLwvM30RTz9zfzrS77mI1k63Sj4WFK4W1Ad9prlwsIqKNQ2PyrqJWvW1NR11CM7ugAMKkXiv7mqb/8V1QDd6P6Jm9D0FDSj6Zqu6PfMV1EeXH3Z0s28ABAhAN2SoNDLFmB005r07sJvvYO3qPnMVqHoXH+jkuLlVSZZsxZP+00scVOM71/biPtV1QCd09z9s1sv3XSlHoivVlRTtqsoVcBUgS959eW5q9UAmIcAdNWivjOzz0zfzBev6hv+6DlTH4ugOSBxZVb7fhg0hdVjI5+zZYkrzo6IOlY7r1kL7Lbc9aIfE7yP6Pm6tqBADUFbv+g1NiOxfw6oQHR0/eOauHouYgBwvQhAhSWuvgpOrLozsf692quAgmCydORUOebZ0TqoKejwmrX6IKj1STR/dGcyXM9lpK/YydQUkmP7N58yK3MrgKP07QfW4q52TSPBlFj3wyucgg6/2/0TX54fPb/7Lc97NQQZt0/tx/ko2dT0d1eBnWf6/tE34dRXOXaj5b5Ixz1WA9SWTpD8PYmzHgAz/Of7/r/oZ1yp4GoeXTg1sqOmLii7Mhuuc98AEvgT+opNFeKSFxQAuH0EoEYIQ4TTy1HDcyV0Z9bubNjQ8IbbF322pKlfMAAURQBqDN1X4UU667+7j0p5ep0/5CHXpf/AH4lqfoL7FBF+AOMQgAAAgHHoBA0AAIxDAAIAAMYhAAEAAOMQgAAAgHEIQAAAwDgEIAAAYBwCEAAAMA4BCAAAGIcABAAAjEMAAgAAxiEAAQAA4xCAAACAcQhAAADAOAQgAABgHAIQAAAwDgEIAAAYhwAEAACMQwACAADGIQABAADjEIAAAIBxCEAAAMA4BCAAAGAcAhBqtpFpvyWt1lgW0SMAAFwaAQj1WYxV8HkUGY6iBwAAuA4EIGwtxi3pTzfRb7+lzd+3kLEtMve/ZHIXPQQAwJUgAJWkQ0GrFU9/38xTzfJVWFHPt1euvE/a0WNJafOPGcib/6b+TRO+dqs/lazRCgCAsghAJWymffl48MX3w2k+8sTOXJBHBf+RaZwxxZRbfmQzlX7LlpW7Fv9rIr/iTdp8AAAa6D9VcP6LfkZZus/LS0fWlwoKOZevA1TXWcpo7svbkaqatPmZ6fUKmsOy1AgBAFA/aoDKCGpHErU3thfNyKJ8DVC55W/kc7aMfj4mbT4AAM1FACpMBZiuI6KbhqImKH+e52on3Udm13yVnLLVtpRdflsmX+o5a1dW9rHOzWnzAQBoLgJQZVQgyVUDU7WCy29P5MufS8/pHu+InDa/tLgmjPsEAQD+DgGosIE8uZYsdTAICvAX6bh/eb+bKpcf1kbNe448Hq3pSZt/THwDxLhpzhM7WM++7L9EWzqW/t+TDxIQAOCP0Akalxd0kvbKd7YGACAjaoBwYRuZvngilitPhB8AwB8hAOFygqEyuuKIe7lbBwAAjEQTGAAAMA41QAAAwDgEIAAAYBwCEAAAMA4BCAAAGIcAVFh4o7/M43ZV7tLLzyq+ISJ3egYAXA8CEOoTXOb+KDL8yztkAwCQjgBksiCgnKmZSZt/lh6bTGTuf8nkLnoIAIArQQAqLTHmlZr+vkmqxPIHbzIf6TG6DsfniqTNP0uPH/am/k0TDYZay0CrAAAcRwAqybO78v3si+/7snYt9XvWGpN4FPTfU54QU3z5ocGbfp6I0z2+3LT5AAA0EQGopOQAnu3Js4xkJT+ZqjLCEdZ1cDmc8gwIWnz5O+3Jl/gq5azslvSPVPWkzS8n2g8MhQEA+EMEoMot5TtTRqimBui3rMs/bum8nq1BSpsPAEATEICqtPmRlVjSyVSVUU0N0J5cy0/QnZ27jvTmevlH+u2kzQcAoGEIQBVavDqyHD3L5EJtOUWWvxi3pGWvxF0fD15p88uLa8K4TxAA4O8QgEry7F3TlS1z8etJCSeVWv5iLLY3Ci9VPxaa0uaflbg6zfbU7/pqMv374RVlbelY+n9PPkhAAIA/8p/v+/+in4HL0E1sKiQlO3QDAFAnaoBwYRuZvngilitPhB8AwB8hAOFydM1PqyuOuLLmMngAwB+iCQwAABiHGiAAAGAcAhAAADAOAQgAABin0QFoM+1H98DhJnoAACC7m+gEre9WfImbEAIAgGa6iSawwcNIZPUjVY9TDgAAbhN9gAAAgHEIQAAAwDi3EYDaHbGWM/mkDQwAAGRwIwFoIl/+u8gjV4QBAIB0txGANlPptx5F3n3x/TfhWjAAAHDOjQSgb1laQ7lnNE0AAJABnaABAIBxCEAAAMA4BCAAAGCcmwhAiw9PpHcndAECAABZNDoAxYOh2t5I5owDBgAAMrqJwVABAADyoA8QAAAwDgEIAAAYhwAEAACMQwACAADGIQABAADjEIAAAIBxCEAAAMA4BCAAAGAcAhAAADAOAQgAABiHAAQAAIxDAAIAAMYhAAEAAOMQgAAAgHEIQAAAwDgEIAAAYBwCEAAAMA4BCAAAGIcABAAAjEMAAgAAxiEAAQAA4xCAAACAcQhAOGkz7Uur1YqmsSyixwEAaDrjA1BQyPensol+x0578iW+74s/H0WP/Mb+AwA0ETVAAADAOI0OQEHtw3ghshhvm2r60/26iMU4bsJRU6KmIm7e6TpLkaUj3fhvWn0JX2Ij035L9Mtv6eUcvsbJ5cfPX8j412tnU2b7Ynvz1bTbnvTtOyd9/8Wi7aeWCABwRZpfA+TZ0nrpyFo31axdEedxWwDrwt+WediMo6Z5TxXUUUEcN++sXUvEcsPnB9OXTNrh8zM5s3zNs1+ks46WP1qq2TmDQMHt03RIsVfJbfPlbRDNLKmy/QcAwAXcQBPYSOZfEwnK3Pad9GQp30ECWMiHZ4n7tCvxB0+uWMuZfOZKIGlOLT80mu8CweDhdF+a00puX+Xbm9dA3nQwircBAIAr0PwANHpQRWwsLGyDWo7Nj6xUWHC6u+afVtdRj1Ts1PKrUmL7dC1NUGkU/w3NUAAABG68E7QlbtT8tJtuqYkmffu2V3L5a3HFke5epx8AAMx0uwGofS9DaynO6/kCv33XO9tM5H1Ez99MpW974c/XIOP27bRFb+qhstuXtv+2naC5jxAA4IrccA1QWyZfa3FX9q6J6Fgz0OAt7Jy8bUqKr2JSz393xdKdkPXj3W95PnM/nL+Xvn2HV4AFHaK37XNp2xdeJRbMC4KRJ3bwOgdXeZ3cf7G2dCz9vydx1gIA4NL+833/X/QzUA99eb0KUaN5xf2jAAAo6Mb7AOHyNjJ98YJL5RMXrAEAcFEEINQnuIFjVxxxZc1l8ACAK0ITGAAAMA41QAAAwDgEIAAAYBwCEAAAME6pABSPCM5N7gAAQJNU0gl6Oyo5N3kBAAANUEkTWDDK+eqHgTYBAEAj0AcIAAAYhwAEAACMU00AanfEOjsiOAAAwPWoKABN5Mt/F3nkijAAAHD9qglAm6n0W48i7774/ptwLRgAALhmFQWgb1laQ7lntEsAANAAdIIGAADGIQABAADjEIAAAIBxKglAiw9PpHcndAECAABNUCoAxYOh2t5I5owDBgAAGqKSwVABAACahD5AAADAOAQgAABgHAIQAAAwDgEIAAAYhwAEAACMQwACAADGIQABAADjEIAAAIBxCEAAAMA4BCAAAGAcAhAAADAOAQgAABhG5P9lC4YEnaJUhgAAAABJRU5ErkJggg==;" vertex="1" parent="1">
          <mxGeometry x="40" y="40" width="576" height="233" as="geometry" />
        </mxCell>
        <mxCell id="c0v-5aZSuVbsnB0xmh3q-2" value="" style="endArrow=classic;html=1;rounded=0;strokeColor=#1d722e;" edge="1" parent="1">
          <mxGeometry width="50" height="50" relative="1" as="geometry">
            <mxPoint x="285" y="73" as="sourcePoint" />
            <mxPoint x="680" y="73" as="targetPoint" />
          </mxGeometry>
        </mxCell>
        <mxCell id="c0v-5aZSuVbsnB0xmh3q-3" value="" style="endArrow=classic;html=1;rounded=0;strokeColor=#1d722e;" edge="1" parent="1">
          <mxGeometry width="50" height="50" relative="1" as="geometry">
            <mxPoint x="210" y="108" as="sourcePoint" />
            <mxPoint x="680" y="108" as="targetPoint" />
          </mxGeometry>
        </mxCell>
        <mxCell id="c0v-5aZSuVbsnB0xmh3q-4" value="" style="endArrow=classic;html=1;rounded=0;strokeColor=#1d722e;" edge="1" parent="1">
          <mxGeometry width="50" height="50" relative="1" as="geometry">
            <mxPoint x="371" y="127" as="sourcePoint" />
            <mxPoint x="680" y="127" as="targetPoint" />
          </mxGeometry>
        </mxCell>
        <mxCell id="c0v-5aZSuVbsnB0xmh3q-5" value="" style="endArrow=classic;html=1;rounded=0;strokeColor=#1d722e;" edge="1" parent="1">
          <mxGeometry width="50" height="50" relative="1" as="geometry">
            <mxPoint x="210" y="162" as="sourcePoint" />
            <mxPoint x="680" y="162" as="targetPoint" />
          </mxGeometry>
        </mxCell>
        <mxCell id="c0v-5aZSuVbsnB0xmh3q-6" value="" style="endArrow=classic;html=1;rounded=0;strokeColor=#1d722e;" edge="1" parent="1">
          <mxGeometry width="50" height="50" relative="1" as="geometry">
            <mxPoint x="210" y="180" as="sourcePoint" />
            <mxPoint x="680" y="180" as="targetPoint" />
          </mxGeometry>
        </mxCell>
        <mxCell id="c0v-5aZSuVbsnB0xmh3q-7" value="" style="endArrow=classic;html=1;rounded=0;strokeColor=#1d722e;" edge="1" parent="1">
          <mxGeometry width="50" height="50" relative="1" as="geometry">
            <mxPoint x="210" y="235" as="sourcePoint" />
            <mxPoint x="680" y="235" as="targetPoint" />
          </mxGeometry>
        </mxCell>
        <mxCell id="c0v-5aZSuVbsnB0xmh3q-8" value="&lt;font color=&quot;#1d722e&quot;&gt;&lt;b&gt;1&lt;/b&gt;&lt;/font&gt;" style="text;html=1;align=center;verticalAlign=middle;resizable=0;points=[];autosize=1;strokeColor=none;fillColor=none;" vertex="1" parent="1">
          <mxGeometry x="680" y="58" width="30" height="30" as="geometry" />
        </mxCell>
        <mxCell id="c0v-5aZSuVbsnB0xmh3q-9" value="&lt;font color=&quot;#1d722e&quot;&gt;&lt;b&gt;log&lt;/b&gt;&lt;span style=&quot;font-size: 12px;&quot;&gt;&lt;b&gt;₂n&lt;/b&gt;&lt;/span&gt;&lt;/font&gt;" style="text;html=1;align=center;verticalAlign=middle;resizable=0;points=[];autosize=1;strokeColor=none;fillColor=none;" vertex="1" parent="1">
          <mxGeometry x="680" y="94" width="50" height="30" as="geometry" />
        </mxCell>
        <mxCell id="c0v-5aZSuVbsnB0xmh3q-10" value="&lt;font color=&quot;#1d722e&quot;&gt;&lt;b&gt;1 * log&lt;/b&gt;&lt;span style=&quot;font-size: 12px;&quot;&gt;&lt;b&gt;₂n&lt;/b&gt;&lt;/span&gt;&lt;/font&gt;" style="text;html=1;align=center;verticalAlign=middle;resizable=0;points=[];autosize=1;strokeColor=none;fillColor=none;" vertex="1" parent="1">
          <mxGeometry x="680" y="112" width="70" height="30" as="geometry" />
        </mxCell>
        <mxCell id="c0v-5aZSuVbsnB0xmh3q-11" value="&lt;font color=&quot;#1d722e&quot;&gt;&lt;b&gt;1 * log&lt;/b&gt;&lt;span style=&quot;font-size: 12px;&quot;&gt;&lt;b&gt;₂n&lt;/b&gt;&lt;/span&gt;&lt;/font&gt;" style="text;html=1;align=center;verticalAlign=middle;resizable=0;points=[];autosize=1;strokeColor=none;fillColor=none;" vertex="1" parent="1">
          <mxGeometry x="680" y="146" width="70" height="30" as="geometry" />
        </mxCell>
        <mxCell id="c0v-5aZSuVbsnB0xmh3q-12" value="&lt;font color=&quot;#1d722e&quot;&gt;&lt;b&gt;1 * log&lt;/b&gt;&lt;span style=&quot;font-size: 12px;&quot;&gt;&lt;b&gt;₂n&lt;/b&gt;&lt;/span&gt;&lt;/font&gt;" style="text;html=1;align=center;verticalAlign=middle;resizable=0;points=[];autosize=1;strokeColor=none;fillColor=none;" vertex="1" parent="1">
          <mxGeometry x="680" y="165" width="70" height="30" as="geometry" />
        </mxCell>
        <mxCell id="c0v-5aZSuVbsnB0xmh3q-13" value="&lt;font color=&quot;#1d722e&quot;&gt;&lt;b&gt;1&lt;/b&gt;&lt;/font&gt;" style="text;html=1;align=center;verticalAlign=middle;resizable=0;points=[];autosize=1;strokeColor=none;fillColor=none;" vertex="1" parent="1">
          <mxGeometry x="680" y="220" width="30" height="30" as="geometry" />
        </mxCell>
        <mxCell id="c0v-5aZSuVbsnB0xmh3q-14" value="" style="endArrow=none;html=1;rounded=0;strokeColor=#26599c;" edge="1" parent="1">
          <mxGeometry width="50" height="50" relative="1" as="geometry">
            <mxPoint x="680" y="250" as="sourcePoint" />
            <mxPoint x="880" y="250" as="targetPoint" />
          </mxGeometry>
        </mxCell>
        <mxCell id="c0v-5aZSuVbsnB0xmh3q-15" value="&lt;font color=&quot;#26599c&quot;&gt;&lt;b&gt;2 +&amp;nbsp;&lt;/b&gt;&lt;span style=&quot;font-size: 12px;&quot;&gt;&lt;b&gt;log₂n +&amp;nbsp;log₂n +&amp;nbsp;log₂n+&amp;nbsp;log₂n&lt;/b&gt;&lt;/span&gt;&lt;/font&gt;" style="text;html=1;align=center;verticalAlign=middle;resizable=0;points=[];autosize=1;strokeColor=none;fillColor=none;" vertex="1" parent="1">
          <mxGeometry x="680" y="250" width="200" height="30" as="geometry" />
        </mxCell>
        <mxCell id="c0v-5aZSuVbsnB0xmh3q-16" value="" style="endArrow=classic;startArrow=none;html=1;rounded=0;entryX=0.498;entryY=1.054;entryDx=0;entryDy=0;entryPerimeter=0;strokeColor=#a11b1b;startFill=0;" edge="1" parent="1">
          <mxGeometry width="50" height="50" relative="1" as="geometry">
            <mxPoint x="779.5799999999999" y="298" as="sourcePoint" />
            <mxPoint x="779.5799999999999" y="280" as="targetPoint" />
            <Array as="points" />
          </mxGeometry>
        </mxCell>
        <mxCell id="c0v-5aZSuVbsnB0xmh3q-17" value="&lt;font color=&quot;#a11b1b&quot;&gt;&lt;b&gt;=&amp;nbsp;&lt;/b&gt;&lt;span style=&quot;font-size: 12px;&quot;&gt;&lt;b&gt;2 + log₂n + log₂n + log₂n+ log₂n&lt;/b&gt;&lt;/span&gt;&lt;/font&gt;&lt;div&gt;&lt;font color=&quot;#a11b1b&quot;&gt;&lt;b&gt;Eliminating the constants:&lt;/b&gt;&lt;/font&gt;&lt;/div&gt;&lt;div&gt;&lt;font color=&quot;#a11b1b&quot;&gt;&lt;b&gt;=&amp;nbsp;&lt;/b&gt;&lt;/font&gt;&lt;b style=&quot;background-color: initial; color: rgb(161, 27, 27);&quot;&gt;log₂n + log₂n + log₂n+ log₂n&lt;/b&gt;&lt;/div&gt;&lt;div&gt;&lt;font color=&quot;#a11b1b&quot;&gt;&lt;b&gt;Getting the highest degree:&lt;/b&gt;&lt;/font&gt;&lt;/div&gt;&lt;div&gt;&lt;font color=&quot;#a11b1b&quot;&gt;&lt;b&gt;=&amp;nbsp;&lt;/b&gt;&lt;/font&gt;&lt;b style=&quot;background-color: initial; color: rgb(161, 27, 27);&quot;&gt;log₂n&lt;/b&gt;&lt;/div&gt;&lt;div&gt;&lt;font color=&quot;#a11b1b&quot;&gt;&lt;b&gt;Time Complexity:&lt;/b&gt;&lt;/font&gt;&lt;/div&gt;&lt;div&gt;&lt;font color=&quot;#a11b1b&quot;&gt;&lt;b&gt;= O(&lt;/b&gt;&lt;/font&gt;&lt;b style=&quot;background-color: initial; color: rgb(161, 27, 27);&quot;&gt;log₂n&lt;/b&gt;&lt;font color=&quot;#a11b1b&quot;&gt;&lt;b&gt;) or O(&lt;/b&gt;&lt;/font&gt;&lt;b style=&quot;background-color: initial; color: rgb(161, 27, 27);&quot;&gt;log n&lt;/b&gt;&lt;b style=&quot;color: rgb(161, 27, 27); background-color: initial;&quot;&gt;)&lt;/b&gt;&lt;/div&gt;" style="text;html=1;align=center;verticalAlign=middle;resizable=0;points=[];autosize=1;strokeColor=none;fillColor=none;" vertex="1" parent="1">
          <mxGeometry x="675" y="296" width="210" height="110" as="geometry" />
        </mxCell>
      </root>
    </mxGraphModel>
  </diagram>
</mxfile>
